<svg xmlns="http://www.w3.org/2000/svg" width="256" height="256"><path fill="#1976D2" fill-opacity=".016" fill-rule="evenodd" d="M0 128.004v128.004l128.25-.254 128.25-.254.254-127.75L257.008 0H0v128.004m.485.496c0 70.4.119 99.053.265 63.672.146-35.38.146-92.98 0-128C.604 29.153.485 58.1.485 128.5"/><path fill="#1976D2" fill-opacity=".207" fill-rule="evenodd" d="M132 8.5V17H81v8.259c0 7.484-.211 8.391-2.25 9.66-3.071 1.911-22.072 17.232-22.985 18.534-1.158 1.65-.895 3.275.806 4.976 1.246 1.245 3.944 1.571 13 1.571H81l-.048 3.75c-.043 3.352-.6 4.147-5.25 7.49-8.89 6.392-20.175 16.263-20.496 17.928-.168.874.424 2.319 1.315 3.211C57.827 93.685 60.366 94 69.571 94H81l-.062 3.75c-.059 3.567-.596 4.164-11.039 12.25-14.667 11.357-15.534 12.311-14.085 15.49 1.128 2.477 1.299 2.51 13.165 2.51H81v42H64v-8h9.06l-.28-12.75-.28-12.75-29.75-.265L13 135.97V162h8v8.553l-4-.382-4-.381V256h230V17h-8V0h-52v17h-8V0h-43v8.5m9 4.5v4h25V9h-25v4m51 0v4h34V9h-34v4M90 98v72h102v77h17v-4.433c0-3.535-.4-4.559-1.974-5.059-2.528-.802-5.873-5.491-6.635-9.302-.38-1.9.113-4.557 1.373-7.406 5.708-12.904 24.236-8.735 24.236 5.453 0 4.479-.404 5.386-4 8.982-3.293 3.293-4 4.687-4 7.883V247h16V26H90v72m8-51v13h26V34H98v13m34 0v13h26V34h-26v13m34 0v13h26V34h-26v13m34 0v13h26V34h-26v13m-93 0v4h8v-8h-8v4m34 0v4h8v-8h-8v4m34 0v4h8v-8h-8v4m34 0v4h8v-8h-8v4M76.038 48.041 72.576 51h4.212C80.801 51 81 50.859 81 48c0-3.7-.592-3.695-4.962.041M98 81v13h26V68H98v13m34 0v13h26V68h-26v13m34 0v13h26V68h-26v13m34 0v13h26V68h-26v13m-93 0v4h8v-8h-8v4m34 0v4h8v-8h-8v4m34 0v4h8v-8h-8v4m34 0v4h8v-8h-8v4M76.5 82l-3.775 3h4.137C80.793 85 81 84.85 81 82c0-1.65-.163-3-.362-3-.2 0-2.062 1.35-4.138 3M98 115v13h26v-26H98v13m34 0v13h26v-26h-26v13m34 0v13h26v-26h-26v13m34 0v13h26v-26h-26v13m-93 0v4h8v-8h-8v4m34 0v4h8v-8h-8v4m34 0v4h8v-8h-8v4m34 0v4h8v-8h-8v4m-132.5 1-3.775 3h4.137c3.931 0 4.138-.15 4.138-3 0-1.65-.163-3-.362-3-.2 0-2.062 1.35-4.138 3M98 149v13h26v-26H98v13m34 0v13h26v-26h-26v13m34 0v13h26v-26h-26v13m34.667-12.333c-.367.366-.667 6.216-.667 13V162h26v-26h-12.333c-6.784 0-12.634.3-13 .667M22 149v4h42v-8H22v4m85 0v4h8v-8h-8v4m34 0v4h8v-8h-8v4m34 0v4h8v-8h-8v4m34 0v4h8v-8h-8v4M30 166v4h25v-8H30v4m170.435 5.308c-.276.72-.374 6.682-.218 13.25l.283 11.942 12.75.28 12.75.28V170h-12.531c-9.4 0-12.657.327-13.034 1.308M22 213v34h16v-3.882c0-3.196-.707-4.59-4-7.883-3.596-3.596-4-4.503-4-8.982 0-15.165 20.297-18.002 25.081-3.506 1.521 4.607-1.036 11.523-5.16 13.959-2.505 1.479-2.921 2.335-2.921 6.01V247h34v-68H22v34m68 0v34h8v-42h77v42h8v-68H90v34m119.667-33.333c-.367.366-.667 2.119-.667 3.895 0 3.036.238 3.251 4 3.609l4 .382v-4.277c0-4.18-.075-4.276-3.333-4.276-1.834 0-3.634.3-4 .667M33.75 187.796c-3.625.314-3.75.453-3.75 4.159 0 3.752.088 3.843 4.052 4.221 2.229.213 4.254.185 4.5-.061.757-.758.495-7.977-.302-8.321-.413-.178-2.437-.177-4.5.002m17 0c-3.625.314-3.75.453-3.75 4.159 0 3.752.088 3.843 4.052 4.221 2.229.213 4.254.185 4.5-.061.757-.758.495-7.977-.302-8.321-.413-.178-2.437-.177-4.5.002m15-.106c-1.281.334-1.75 1.479-1.75 4.275 0 3.127.407 3.92 2.25 4.379 4.9 1.221 6.25.28 6.25-4.355 0-3.884-.253-4.343-2.5-4.538-1.375-.12-3.287-.012-4.25.239m32.592.862c-.266.692-.339 2.763-.162 4.603.304 3.182.514 3.345 4.32 3.345h4v-9l-3.838-.103c-2.244-.06-4.038.42-4.32 1.155m17.08-.208c-.31.806-.419 2.971-.242 4.811.304 3.182.514 3.345 4.32 3.345h4V192c0-4.48-.017-4.501-3.758-4.811-2.597-.215-3.932.142-4.32 1.155m17 0c-.31.806-.419 2.971-.242 4.811.304 3.182.514 3.345 4.32 3.345h4V192c0-4.48-.017-4.501-3.758-4.811-2.597-.215-3.932.142-4.32 1.155m17 0c-.31.806-.419 2.971-.242 4.811.304 3.182.514 3.345 4.32 3.345h4V192c0-4.48-.017-4.501-3.758-4.811-2.597-.215-3.932.142-4.32 1.155m17 0c-.31.806-.419 2.971-.242 4.811.304 3.182.514 3.345 4.32 3.345h4V192c0-4.48-.017-4.501-3.758-4.811-2.597-.215-3.932.142-4.32 1.155M107 230.5V247h25v-33h-25v16.5m34 0V247h25v-33h-25v16.5m-100.954-7.055c-.66.795-1.052 2.482-.873 3.75.422 2.973 4.657 3.759 6.521 1.209 1.679-2.296 1.644-2.923-.265-4.833-1.959-1.958-3.826-2.002-5.383-.126m170.525.126c-1.917 1.918-1.946 2.534-.227 4.885 1.929 2.637 6.656 1.376 6.656-1.775 0-4.281-3.543-5.995-6.429-3.11"/><path fill="#1976D2" fill-opacity=".146" fill-rule="evenodd" d="M132 8.5V17H81l-.023 8.25-.023 8.25-12.534 9.851c-11.007 8.652-12.496 10.174-12.227 12.5L56.5 58.5l12 .5 12 .5.305 4.75c.187 2.912-.112 4.75-.771 4.75-.592 0-6.241 4.135-12.555 9.188C58.892 85.061 56 87.95 56 89.653 56 93.125 58.906 94 70.434 94H81v4.5c0 2.475-.394 4.5-.876 4.5-1.894 0-23.644 18.289-23.951 20.141-.683 4.115 1.376 4.859 13.449 4.859H81v43H64v-9h8.062l-.281-12.25-.281-12.25-29.25-.265L13 136.97V162h9.115l-.308 4.25c-.306 4.229-.328 4.251-4.557 4.557l-4.25.308V256h230V17h-8V0h-51v17h-9V0h-43v8.5m9 3.97V17H167.115l-.308-4.25-.307-4.25-12.75-.28L141 7.94v4.53m51 .03V17h34V8h-34v4.5M89.462 26.243c-.264.692-.363 33.432-.221 72.757l.259 71.5 51.25.259 51.25.259V248h17v-4.644c0-4.095-.429-5.014-3.625-7.778-3.056-2.641-3.699-3.916-4.09-8.106-.613-6.582 2.432-11.384 8.431-13.297 3.713-1.184 4.624-1.118 8.542.615 9.42 4.167 10.334 16.092 1.705 22.237-2.7 1.922-3.031 2.681-2.765 6.328l.302 4.145h17v-222l-72.279-.257c-57.293-.203-72.378.004-72.759 1M98.22 46.75l.28 12.75 11.92.283c8.865.211 12.13-.046 12.735-1 .943-1.485 1.141-20.847.238-23.201-.508-1.325-2.624-1.582-13.03-1.582H97.94l.28 12.75m34.447-12.083c-.956.955-.796 22.581.178 24.116.605.954 3.87 1.211 12.735 1l11.92-.283.28-12.75.28-12.75h-12.363c-6.8 0-12.664.3-13.03.667M167 47v13h25V34h-25v13m34 0v13h25V34h-25v13m-94.333-4.333c-.367.366-.667 2.391-.667 4.5V51h9v-9h-3.833c-2.109 0-4.134.3-4.5.667M141 46.443V51h8.756l-.128-4.25-.128-4.25-4.25-.307-4.25-.308v4.558m34.416-3.526c-.229.229-.416 2.141-.416 4.25V51h9.115l-.308-4.15c-.301-4.071-.38-4.152-4.141-4.25-2.109-.055-4.022.088-4.25.317M209 47v4h9v-8h-9v4m-132.891.51L71.719 51h4.64C80.996 51 81 50.997 81 47.5c0-1.925-.112-3.496-.25-3.49-.138.005-2.226 1.58-4.641 3.5m22.558 21.157c-.367.366-.667 6.216-.667 13V94h12.393c10.378 0 12.492-.257 13-1.582.789-2.057.789-20.779 0-22.836C122.887 68.264 120.83 68 111.06 68c-6.45 0-12.027.3-12.393.667m33.818 1.552c-.312 1.255-.437 7.006-.277 12.781l.292 10.5 12.78.28 12.78.28-.28-12.78-.28-12.78-12.223-.281c-11.999-.275-12.234-.238-12.792 2M167 81v13h25V68h-25v13m34 0v13h25V68h-25v13m-94.807.25c.306 4.229.328 4.251 4.557 4.557l4.25.308V77h-9.115l.308 4.25m34.807.307v4.558l4.25-.308 4.25-.307.128-4.25.128-4.25H141v4.557m34.193-.385c.305 4.149.329 4.171 4.307 4.171s4.002-.022 4.307-4.171l.308-4.172h-9.23l.308 4.172M209 81v4h9v-8h-9v4m-132.709.308c-2.315 1.755-4.228 3.53-4.25 3.942-.023.412 1.984.75 4.459.75H81v-4c0-2.2-.112-3.974-.25-3.942-.138.031-2.144 1.494-4.459 3.25m124.707 33.942L201 128h25v-24.886l-12.502-.307-12.502-.307.002 12.75M98 115.47V128h26.062l-.281-12.25-.281-12.25-12.75-.28-12.75-.28v12.53m34.667-11.803c-.367.366-.667 5.991-.667 12.5V128h26v-25h-12.333c-6.784 0-12.634.3-13 .667M167 115.5V128h25v-25h-25v12.5m-60.807-.25c.306 4.229.328 4.251 4.557 4.557l4.25.308V111h-9.115l.308 4.25m34.807.25v4.615l4.25-.308c4.24-.306 4.25-.316 4.25-4.307 0-3.991-.01-4.001-4.25-4.307l-4.25-.308v4.615m34 .057v4.558l4.25-.308c4.229-.306 4.251-.328 4.557-4.557l.308-4.25H175v4.557m34 0v4.558l4.25-.308c4.229-.306 4.251-.328 4.557-4.557l.308-4.25H209v4.557M76 116l-4.5 3.94 4.75.03L81 120v-4c0-2.2-.112-3.987-.25-3.97-.138.016-2.275 1.803-4.75 3.97m22 33.47V162h26.062l-.281-12.25-.281-12.25-12.75-.28-12.75-.28v12.53m34.667-11.803c-.367.366-.667 5.991-.667 12.5V162h26v-25h-12.333c-6.784 0-12.634.3-13 .667M167 149.5V162h25v-25h-25v12.5m34 0V162h25v-25h-25v12.5m-180 0v4.5h43v-9H21v4.5m85.193-.25c.306 4.229.328 4.251 4.557 4.557l4.25.308V145h-9.115l.308 4.25m34.807.25v4.615l4.25-.308c4.24-.306 4.25-.316 4.25-4.307 0-3.991-.01-4.001-4.25-4.307l-4.25-.308v4.615m34 .057v4.558l4.25-.308c4.229-.306 4.251-.328 4.557-4.557l.308-4.25H175v4.557m34-.057v4.5h9v-9h-9v4.5m-179 17v4.5h26v-9H30v4.5m171 17V196h25v-25h-25v12.5M21 213.539v34.539l8.75-.289 8.75-.289.295-4.508c.266-4.064.007-4.678-2.629-6.235C33.058 234.921 30 229.61 30 226.049 30 219.82 36.12 214 42.67 214c7.325 0 12.334 4.958 12.326 12.2-.004 3.813-2.963 9.177-5.942 10.771-1.649.882-2.054 2.08-2.054 6.064V248h34v-69H21v34.539m68.237-.289.263 34.25 4.25.307 4.25.308V205h77V248.115l4.25-.308 4.25-.307.263-34.25.263-34.25H88.974l.263 34.25M209 183.5v4.5h9v-9h-9v4.5M30 192v4.121l3.75-.311c3.56-.294 3.75-.487 3.75-3.81s-.19-3.516-3.75-3.81l-3.75-.311V192m17 0v4.121l3.75-.311c3.56-.294 3.75-.487 3.75-3.81s-.19-3.516-3.75-3.81l-3.75-.311V192m17 0v4.121l3.75-.311c3.56-.294 3.75-.487 3.75-3.81s-.19-3.516-3.75-3.81l-3.75-.311V192m34 0v4h8v-8h-8v4m17 0v4.115l4.25-.308c4.132-.298 4.25-.404 4.25-3.807s-.118-3.509-4.25-3.807l-4.25-.308V192m17.39-2.573c-.302.785-.4 2.473-.219 3.75.277 1.955 1.003 2.372 4.579 2.63l4.25.308V188h-4.031c-2.57 0-4.23.518-4.579 1.427M150 192v4h8v-8h-8v4m17 0v4h8v-8h-8v4m-60.558 22.29c-.272.71-.371 8.472-.218 17.25l.276 15.96 12.75.28 12.75.28V213h-12.531c-9.311 0-12.659.332-13.027 1.29M141 230.5v17.56l12.75-.28 12.75-.28v-34l-12.75-.28-12.75-.28v17.56m-101.8-7.3c-1.903 1.903-1.403 4.621 1.159 6.3 2.918 1.911 5.465 1.048 6.261-2.123 1.086-4.325-4.262-7.335-7.42-4.177m171 0c-1.843 1.843-1.43 4.526.955 6.196 3.741 2.62 7.992-1.384 5.806-5.468-1.154-2.157-4.926-2.563-6.761-.728"/><path fill="#1976D2" fill-opacity=".111" fill-rule="evenodd" d="M134 8.071c0 5.662-.426 8.498-1.429 9.5-1.102 1.103-4.638 1.429-15.5 1.429-13.022 0-14.071.138-14.071 1.849 0 1.628 1.165 1.926 9.75 2.495 5.362.355 34.782.648 65.378.651 45.305.004 55.834.254 56.741 1.347 1.585 1.91 1.585 220.406 0 222.316-1.448 1.744-15.95 1.861-17.669.142-.66-.66-1.183-3.022-1.161-5.25.032-3.458.508-4.342 3.25-6.05 4.117-2.564 7.092-8.49 6.23-12.411-.665-3.029-5.928-9.346-6.942-8.333-.317.318-.577.056-.577-.582 0-1.692-7.953-1.211-11.25.68-1.512.868-2.75 2.155-2.75 2.862 0 .706-.45 1.284-1 1.284s-.947.338-.882.75c.066.412.019.975-.104 1.25-.711 1.596-.546 8 .206 8 .494 0 .62.45.28 1-.34.55-.115 1 .5 1s.837.454.494 1.009c-.343.555.753 1.793 2.435 2.75 2.853 1.624 3.059 2.127 3.065 7.491L209 249h-16.976l-.262-38.25-.262-38.25-20-.318c-11-.176-30.912-.013-44.25.362-22.097.62-24.25.835-24.25 2.418 0 2.36 10.793 3.026 49.168 3.033 16.318.003 30.38.278 31.25.612 1.399.537 1.582 4.499 1.582 34.3 0 24.872-.314 34.007-1.2 34.893-1.804 1.804-8.46 1.527-9.193-.382-.334-.87-.607-10.545-.607-21.5V206l-25.75.005c-14.162.003-30.138.296-35.5.651l-9.75.646V256h140V17h-9V0h-49v8.481c0 8.097-.108 8.508-2.379 9.078-1.309.328-3.671.45-5.25.269L174.5 17.5l-.289-8.75-.289-8.75H134v8.071m6.25-.409c-1.721.695-1.587 8.144.179 9.909 1.761 1.762 19.623 2.004 24.422.331 2.873-1.001 3.149-1.474 3.149-5.393 0-2.994-.479-4.479-1.582-4.902-1.877-.72-24.363-.673-26.168.055M192 12.648v5.648l8.25-.642c4.537-.353 12.412-.645 17.5-.648L227 17v-3.418C227 6.808 227.529 7 208.893 7H192v5.648m9.808 33.541.308 11.688 11.192.314c6.156.173 11.53.174 11.942.003.412-.172.75-5.435.75-11.696V35.114l-12.25-.307-12.25-.307.308 11.689m-33.141-10.522c-.367.366-.667 5.541-.667 11.5V58h24V47.107c0-9.011-.273-10.998-1.582-11.5-2.15-.825-20.918-.774-21.751.06m-56.309 1.062c-5.654.332-6.18.562-6.626 2.892-.345 1.806-.176 2.223.592 1.455 1.765-1.765 8.179-1.283 10.021.753 2.299 2.54 2.136 8.426-.295 10.626-1.386 1.254-3.122 1.653-6 1.378-3.265-.311-4.05-.063-4.05 1.278 0 1.356 1.34 1.748 7.25 2.124 3.987.254 7.605.152 8.038-.225.434-.378.659-5.141.5-10.587-.232-7.963-.582-9.915-1.788-9.978-.825-.042-4.264.085-7.642.284m22.071.596c-.28.729-.378 5.566-.219 10.75l.29 9.425 11 .28 11 .281V36h-10.781c-8.029 0-10.912.338-11.29 1.325m5.821 4.337c-1.608.649-1.647 8.541-.05 10.138.66.66 2.82 1.2 4.8 1.2 4.543 0 6-1.457 6-6 0-1.98-.54-4.14-1.2-4.8-1.184-1.184-7.12-1.518-9.55-.538m34.191 1.717c-.328 1.309-.45 3.671-.269 5.25.312 2.735.565 2.871 5.328 2.871h5l.315-3.82c.406-4.934-1.141-6.68-5.918-6.68-3.23 0-3.956.388-4.456 2.379M209 46.555v5.555l4.75-.305c4.721-.303 4.752-.328 5.065-4.125.406-4.94-1.14-6.68-5.937-6.68H209v5.555m3.808 23.202-10.691.309-.309 11.717L201.5 93.5l12.281-.308 12.281-.307-.281-11.611c-.164-6.792-.696-11.656-1.281-11.719-.55-.059-5.811.031-11.692.202m-100.558.975c-5.116.297-6.25.677-6.25 2.092 0 1.417.73 1.659 4.05 1.343 2.878-.275 4.614.124 6 1.378 2.56 2.317 2.63 8.53.121 10.8-2.055 1.86-8.204 2.222-9.847.579-.768-.768-.941-.369-.604 1.393.439 2.296.972 2.5 7.626 2.924 3.935.25 7.509.146 7.942-.231.434-.378.659-5.141.5-10.587-.232-7.963-.582-9.915-1.788-9.978-.825-.042-4.312.086-7.75.287m22.179.593c-.28.729-.378 5.566-.219 10.75l.29 9.425 11 .28 11 .281V70h-10.781c-8.029 0-10.912.338-11.29 1.325m33.788 9.925.283 11.25 9.5.293c14.815.457 14 1.145 14-11.812V70h-24.066l.283 11.25M140.2 76.2c-1.825 1.825-1.54 9.456.382 10.193 2.653 1.018 7.947.678 9.218-.593.66-.66 1.2-2.82 1.2-4.8s-.54-4.14-1.2-4.8c-1.552-1.552-8.048-1.552-9.6 0m34.513.421c-.871.87-.94 6.624-.106 8.797.78 2.033 7.681 2.145 9.335.152.653-.787 1.046-3.149.873-5.25-.311-3.769-.376-3.824-4.852-4.116-2.496-.163-4.858.025-5.25.417M209 81.445V87h3.878c4.797 0 6.343-1.74 5.937-6.68-.313-3.797-.344-3.822-5.065-4.125L209 75.89v5.555m-96.75 23.287c-5.408.314-6.25.626-6.25 2.316 0 1.665.706 1.952 4.8 1.952 2.64 0 5.34.54 6 1.2 1.868 1.868 1.472 8.243-.629 10.145-2.03 1.837-8.197 2.229-9.802.624-.709-.709-.893-.083-.587 2l.445 3.031H122.068l-.284-10.738c-.23-8.71-.567-10.753-1.784-10.816-.825-.043-4.312.085-7.75.286m22.417-.065c-.367.366-.667 5.258-.667 10.87v10.203l4.75.695c2.613.383 7.675.86 11.25 1.061l6.5.366V104h-10.583c-5.821 0-10.884.3-11.25.667m33.142 11.364-.309 12.03 12-.28 12-.281.282-11.75.281-11.75h-23.945l-.309 12.031m34-.029-.309 12.002 12.25-.002L226 128v-24h-23.882l-.309 12.002m-61.616-5.446c-.765.867-1.179 3.235-1 5.712l.307 4.232h11l.308-4.263c.202-2.787-.207-4.778-1.178-5.75-1.902-1.902-7.735-1.859-9.437.069m34.474.111c-.834.833-.873 6.632-.06 8.751.733 1.909 7.389 2.186 9.193.382 1.804-1.804 1.527-8.46-.382-9.193-2.119-.813-7.918-.774-8.751.06m34.762.237c-.236.236-.429 2.604-.429 5.263V121h3.8c4.766 0 6.2-1.411 6.2-6.099 0-3.673-.032-3.702-4.571-4.063-2.513-.2-4.763-.17-5 .066m-97.179 27.828c-6.051.352-6.25.45-6.25 3.092 0 2.568.23 2.707 3.889 2.358 5.529-.527 8.111 1.127 8.111 5.198 0 1.937-.759 3.997-1.829 4.965-2.01 1.82-8.191 2.235-9.77.656-.666-.666-.863.169-.591 2.5l.409 3.499H122.066l-.283-11.238c-.231-9.155-.561-11.253-1.783-11.316-.825-.043-4.312.085-7.75.286m22.417-.065c-.367.366-.667 5.479-.667 11.36v10.694l5.25.631c2.887.347 7.811.635 10.941.639l5.691.009.309-12.002.309-12.002-10.583.002c-5.821.001-10.884.302-11.25.669M168 150v12h24v-24h-24v12m34 0v12h24v-24h-24v12m-62.805-.25.305 4.75h11l.305-4.75.305-4.75h-12.22l.305 4.75m34.82-1c.023 5.461.993 6.429 6.084 6.065l4.401-.315.305-4.75.305-4.75H174l.015 3.75M209 150v5h3.8c2.09 0 4.34-.54 5-1.2.66-.66 1.2-2.91 1.2-5V145h-10v5m3.5 21.753-11 .303.5 11.722.5 11.722 11.781.282 11.781.282-.281-12.2c-.165-7.186-.692-12.244-1.281-12.307-.55-.059-5.95.029-12 .196m-3.5 11.802v4.555l4.75-.305 4.75-.305.307-4.25.308-4.25H209v4.555M118 192c0 2.459.383 3.073 1.75 2.81 1.104-.213 1.75-1.25 1.75-2.81s-.646-2.597-1.75-2.81c-1.367-.263-1.75.351-1.75 2.81m16.362-1.5c-.893 2.327.365 4.5 2.607 4.5 1.59 0 2.031-.651 2.031-3s-.441-3-2.031-3c-1.118 0-2.291.675-2.607 1.5M151 192c0 2.606.361 3 2.75 3 2.389 0 2.75-.394 2.75-3s-.361-3-2.75-3c-2.389 0-2.75.394-2.75 3m17 0c0 2.667.333 3 3 3s3-.333 3-3-.333-3-3-3-3 .333-3 3m-62.75 20.44c-.892 1.053-1.25 6.304-1.25 18.349 0 20.732-1.075 19.564 17 18.469l12.5-.758.274-17.368c.156-9.86-.134-17.86-.669-18.506-.592-.713-5.72-1.234-13.774-1.399-10.315-.211-13.076.027-14.081 1.213m35 .222c-.932.377-1.25 4.902-1.25 17.814 0 14.862.224 17.396 1.582 17.917 2.058.79 23.778.79 25.836 0 1.358-.521 1.582-3.053 1.582-17.893s-.224-17.372-1.582-17.893c-1.877-.72-24.363-.673-26.168.055m71 9.415c-2.909 1.11-3.045 5.798-.238 8.202 2.244 1.92 4.68 1.044 6.877-2.473.962-1.541.845-2.311-.626-4.101-2.108-2.566-2.955-2.795-6.013-1.628"/></svg>